Coordinates
version=1
nRows=9
nColumns=36
inDegrees=yes

Units are S.I. units (second, meters, Newtons, ...)
If the header above contains a line with 'inDegrees', this indicates whether rotational values are in degrees (yes) or radians (no).

endheader
time	pelvis_tilt	pelvis_list	pelvis_rotation	pelvis_tx	pelvis_ty	pelvis_tz	hip_flexion_r	hip_adduction_r	hip_rotation_r	knee_angle_r	knee_angle_r_beta	ankle_angle_r	subtalar_angle_r	mtp_angle_r	hip_flexion_l	hip_adduction_l	hip_rotation_l	knee_angle_l	knee_angle_l_beta	ankle_angle_l	subtalar_angle_l	mtp_angle_l	lumbar_extension	lumbar_bending	lumbar_rotation	arm_flex_r	arm_add_r	arm_rot_r	elbow_flex_r	pro_sup_r	arm_flex_l	arm_add_l	arm_rot_l	elbow_flex_l	pro_sup_l
      0.00000000	      4.34196292	      3.18877195	     -0.69497201	     -0.20761387	      1.25332055	      0.09864781	     -3.11064487	     -4.62577601	     -0.23862142	      7.21738204	      0.12596708	      3.25018341	    -13.62301678	     -5.43414701	     -5.90470711	     -0.29659695	     -7.63263717	      3.38324126	      0.05904870	      7.80253630	     -4.20667969	     -5.43414701	    -14.73505801	     -2.16856565	     -1.07006810	     10.93941789	    -10.84890134	     25.84576811	     26.12783417	     74.24019369	      4.60935431	    -11.60935067	     18.43349473	     30.40085297	     67.97021264
      0.01666670	     -0.36038995	      2.04867169	     -1.79609342	     -0.20494130	      1.24424387	      0.09870845	      2.64764311	     -3.29444011	      0.91594070	      8.25273287	      0.14403736	      6.50249056	    -11.32643693	     -5.86430199	     -0.19229862	     -1.64291146	     -8.99499512	      4.35917651	      0.07608198	      8.77590252	     -3.66895580	     -5.86430199	     -7.58758497	     -0.71366125	     -0.11679612	      9.84546744	    -10.78305727	     24.53065507	     25.07906587	     73.33791446	      3.50365998	    -10.31424513	     16.76382389	     28.66786641	     67.51733459
      0.03333330	     -1.50667860	      1.93623999	     -2.60945088	     -0.20420969	      1.24322673	      0.09948078	      3.89816963	     -2.98609580	      0.87349403	      8.20009440	      0.14311865	      7.07321952	    -11.52962175	     -6.09266154	      1.61241471	     -2.04074104	    -10.15760305	      5.16489658	      0.09014445	      9.03005055	     -4.12832161	     -6.09266154	     -5.95823772	     -0.79809338	      0.35815473	      9.66128976	    -10.43443949	     23.34609137	     25.30933213	     72.24774215	      3.33028674	    -10.44601769	     16.39780119	     28.70477691	     67.12978810
      0.05000000	     -1.90562987	      2.07041414	     -3.00214824	     -0.20236751	      1.24126678	      0.10017396	      4.31756446	     -2.98591009	      0.80536098	      8.13748091	      0.14202583	      7.94325320	    -11.00714253	     -6.27961822	      1.91841116	     -2.01764209	    -10.77415563	      4.98722866	      0.08704356	      9.02953020	     -4.96573846	     -6.27961822	     -5.22085294	     -1.07767630	      0.75248820	      9.26952411	    -10.28823102	     22.22065120	     25.84447766	     71.28343801	      3.08229553	    -10.94751692	     16.01176653	     29.13159254	     66.81066660
      0.06666670	     -2.36766810	      2.15689831	     -3.18310066	     -0.20178351	      1.24081159	      0.10053226	      4.69348078	     -2.95968103	      0.61574742	      7.97863404	      0.13925343	      8.02994412	    -10.93933021	     -6.44768170	      2.39973281	     -2.02862778	    -11.16188958	      5.13979266	      0.08970630	      9.43741281	     -5.12598282	     -6.44768170	     -4.51980668	     -1.12814022	      1.02008176	      8.89569892	    -10.13062806	     21.45206988	     26.19453793	     70.25934159	      2.97162120	    -11.15613853	     15.88043764	     29.16038836	     66.46536515
      0.08333330	     -2.85042197	      2.23232313	     -3.23581065	     -0.20146366	      1.24140206	      0.10063235	      5.14908617	     -2.96799041	      0.40208430	      7.99106501	      0.13947040	      8.03977977	    -10.91419440	     -6.67939738	      2.98360566	     -2.02032379	    -11.42980290	      5.31967518	      0.09284585	      9.81441973	     -4.97440968	     -6.67939738	     -3.65095405	     -1.12464347	      1.46848914	      8.60568217	    -10.22287315	     22.10501043	     25.98589036	     71.67629004	      3.45964478	    -11.44769616	     17.97951828	     27.99382117	     68.67593634
      0.10000000	     -3.14290774	      2.27253493	     -3.16672465	     -0.20225522	      1.24009969	      0.09976453	      5.46713384	     -3.05367036	      0.08293134	      8.08063192	      0.14103363	      7.94087157	    -11.19842450	     -6.77375627	      3.42220490	     -1.96196566	    -11.31994882	      5.55351689	      0.09692715	     10.10590235	     -5.05000781	     -6.77375627	     -3.26556045	     -1.06565092	      1.53860712	      8.48619967	    -10.19802146	     21.95332383	     26.10278572	     71.11989361	      3.46491103	    -11.40835721	     17.61662362	     27.97419283	     68.31493485
      0.11666670	     -3.24317355	      2.26930932	     -3.09172720	     -0.20214758	      1.23999377	      0.09952828	      5.56531800	     -3.11086822	     -0.12014229	      8.18437201	      0.14284424	      7.85380841	    -11.39478470	     -6.85723731	      3.54984583	     -1.92084520	    -11.10322655	      5.69602549	      0.09941440	     10.22361601	     -5.17170329	     -6.85723731	     -3.25501217	     -1.00055699	      1.65961112	      8.31670700	    -10.29578241	     21.91763405	     26.64466113	     70.40647330	      3.38947605	    -11.46986152	     17.41115921	     28.60568736	     67.79285647
      0.13333330	     -3.31026095	      2.21437308	     -2.99368932	     -0.20248139	      1.24034653	      0.09947678	      5.73275920	     -3.11451512	     -0.27206908	      8.32901858	      0.14536880	      7.83341770	    -11.64900446	     -6.92747126	      3.59140329	     -1.91424183	    -10.97852509	      5.64744130	      0.09856645	      9.92618146	     -5.48680880	     -6.92747126	     -3.27166154	     -0.86262144	      1.65110482	      8.26088313	    -10.28935609	     21.92823512	     26.92806435	     69.63733037	      3.30065937	    -11.48966831	     17.25543585	     28.90191085	     67.22146202
